<svg width="300" height="244" viewBox="0 0 300 244" fill="none" xmlns="http://www.w3.org/2000/svg">
<g clip-path="url(#clip0_1_4)">
<path d="M169.594 2.16409L169.503 48.8709L56.5205 64.7906L56.4881 82.7692L156.194 68.7204L156.117 111.809L56.4039 125.858L56.3326 165.433L3.23975 172.909L3.51188 25.5597L169.594 2.16409Z" stroke="white" stroke-width="3" stroke-miterlimit="10"/>
<path d="M169.594 2.16409L169.503 48.8709L56.5205 64.7906L56.4881 82.7692L156.194 68.7204L156.117 111.809L56.4039 125.858L56.3326 165.433L3.23975 172.909L3.51188 25.5597L169.594 2.16409Z" stroke="white" stroke-width="3" stroke-miterlimit="10"/>
<path d="M296.806 71.5322L296.715 118.239L183.732 134.159L183.7 152.138L283.406 138.088L283.328 181.178L183.616 195.227L183.544 234.801L130.451 242.284L130.724 94.9283L296.806 71.5322Z" stroke="white" stroke-width="3" stroke-miterlimit="10"/>
<path d="M296.806 71.5322L296.715 118.239L183.732 134.159L183.7 152.138L283.406 138.088L283.328 181.178L183.616 195.227L183.544 234.801L130.451 242.284L130.724 94.9283L296.806 71.5322Z" stroke="white" stroke-width="3" stroke-miterlimit="10"/>
<path d="M296.806 71.5322L296.715 118.239L169.503 48.8709L169.594 2.16409L296.806 71.5322Z" stroke="white" stroke-width="3" stroke-miterlimit="10"/>
<path d="M296.806 71.5322L296.715 118.239L169.503 48.8709L169.594 2.16409L296.806 71.5322Z" stroke="white" stroke-width="3" stroke-miterlimit="10"/>
<path d="M296.715 118.239L183.732 134.159L56.5205 64.7906L169.503 48.8708L296.715 118.239Z" stroke="white" stroke-width="3" stroke-miterlimit="10"/>
<path d="M296.715 118.239L183.732 134.159L56.5205 64.7906L169.503 48.8708L296.715 118.239Z" stroke="white" stroke-width="3" stroke-miterlimit="10"/>
<path d="M183.732 134.159L183.7 152.138L56.4883 82.7692L56.5207 64.7905L183.732 134.159Z" stroke="white" stroke-width="3" stroke-miterlimit="10"/>
<path d="M183.732 134.159L183.7 152.138L56.4883 82.7692L56.5207 64.7905L183.732 134.159Z" stroke="white" stroke-width="3" stroke-miterlimit="10"/>
<path d="M183.7 152.138L56.4883 82.7692L156.194 68.7204L283.406 138.088L183.7 152.138Z" stroke="white" stroke-width="3" stroke-miterlimit="10"/>
<path d="M183.7 152.138L56.4883 82.7692L156.194 68.7204L283.406 138.088L183.7 152.138Z" stroke="white" stroke-width="3" stroke-miterlimit="10"/>
<path d="M283.406 138.088L283.328 181.178L156.117 111.809L156.194 68.7204L283.406 138.088Z" stroke="white" stroke-width="3" stroke-miterlimit="10"/>
<path d="M283.406 138.088L283.328 181.178L156.117 111.809L156.194 68.7204L283.406 138.088Z" stroke="white" stroke-width="3" stroke-miterlimit="10"/>
<path d="M283.328 181.178L183.616 195.227L56.4037 125.858L156.117 111.809L283.328 181.178Z" stroke="white" stroke-width="3" stroke-miterlimit="10"/>
<path d="M283.328 181.178L183.616 195.227L56.4037 125.858L156.117 111.809L283.328 181.178Z" stroke="white" stroke-width="3" stroke-miterlimit="10"/>
<path d="M183.616 195.227L183.544 234.802L56.3326 165.433L56.4039 125.858L183.616 195.227Z" stroke="white" stroke-width="3" stroke-miterlimit="10"/>
<path d="M183.616 195.227L183.544 234.802L56.3326 165.433L56.4039 125.858L183.616 195.227Z" stroke="white" stroke-width="3" stroke-miterlimit="10"/>
<path d="M183.544 234.801L130.451 242.284L3.23975 172.909L56.3326 165.433L183.544 234.801Z" stroke="white" stroke-width="3" stroke-miterlimit="10"/>
<path d="M183.544 234.801L130.451 242.284L3.23975 172.909L56.3326 165.433L183.544 234.801Z" stroke="white" stroke-width="3" stroke-miterlimit="10"/>
<path d="M130.451 242.284L3.23975 172.909L3.51188 25.5597L130.724 94.9283L130.451 242.284Z" stroke="white" stroke-width="3" stroke-miterlimit="10"/>
<path d="M130.451 242.284L3.23975 172.909L3.51188 25.5597L130.724 94.9283L130.451 242.284Z" stroke="white" stroke-width="3" stroke-miterlimit="10"/>
<path d="M130.724 94.9283L3.51184 25.5597L169.594 2.16409L296.806 71.5322L130.724 94.9283Z" stroke="white" stroke-width="3" stroke-miterlimit="10"/>
<path d="M130.724 94.9283L3.51184 25.5597L169.594 2.16409L296.806 71.5322L130.724 94.9283Z" stroke="white" stroke-width="3" stroke-miterlimit="10"/>
</g>
<defs>
<clipPath id="clip0_1_4">
<rect width="300" height="244" fill="white"/>
</clipPath>
</defs>
</svg>
