<svg width="463" height="376" viewBox="0 0 463 376" fill="none" xmlns="http://www.w3.org/2000/svg">
<path d="M261.74 3.33484L261.6 75.3092L87.23 99.8412L87.18 127.546L241.06 105.897L240.94 172.296L87.05 193.945L86.94 254.93L5 266.45L5.42 39.3871L261.74 3.33484Z" stroke="#E7685D" stroke-width="3" stroke-miterlimit="10"/>
<path d="M261.74 3.33484L261.6 75.3092L87.23 99.8412L87.18 127.546L241.06 105.897L240.94 172.296L87.05 193.945L86.94 254.93L5 266.45L5.42 39.3871L261.74 3.33484Z" stroke="#E7685D" stroke-width="3" stroke-miterlimit="10"/>
<path d="M458.07 110.23L457.93 182.205L283.56 206.737L283.51 234.442L437.39 212.792L437.27 279.192L283.38 300.841L283.27 361.825L201.33 373.356L201.75 146.283L458.07 110.23Z" stroke="#E7685D" stroke-width="3" stroke-miterlimit="10"/>
<path d="M458.07 110.23L457.93 182.205L283.56 206.737L283.51 234.442L437.39 212.792L437.27 279.192L283.38 300.841L283.27 361.825L201.33 373.356L201.75 146.283L458.07 110.23Z" stroke="#E7685D" stroke-width="3" stroke-miterlimit="10"/>
<path d="M458.07 110.23L457.93 182.205L261.6 75.3092L261.74 3.33484L458.07 110.23Z" stroke="#E7685D" stroke-width="3" stroke-miterlimit="10"/>
<path d="M458.07 110.23L457.93 182.205L261.6 75.3092L261.74 3.33484L458.07 110.23Z" stroke="#E7685D" stroke-width="3" stroke-miterlimit="10"/>
<path d="M457.93 182.205L283.56 206.737L87.23 99.8412L261.6 75.3092L457.93 182.205Z" stroke="#E7685D" stroke-width="3" stroke-miterlimit="10"/>
<path d="M457.93 182.205L283.56 206.737L87.23 99.8412L261.6 75.3092L457.93 182.205Z" stroke="#E7685D" stroke-width="3" stroke-miterlimit="10"/>
<path d="M283.56 206.737L283.51 234.442L87.1802 127.546L87.2302 99.8411L283.56 206.737Z" stroke="#E7685D" stroke-width="3" stroke-miterlimit="10"/>
<path d="M283.56 206.737L283.51 234.442L87.1802 127.546L87.2302 99.8411L283.56 206.737Z" stroke="#E7685D" stroke-width="3" stroke-miterlimit="10"/>
<path d="M283.51 234.442L87.1802 127.546L241.06 105.897L437.39 212.792L283.51 234.442Z" stroke="#E7685D" stroke-width="3" stroke-miterlimit="10"/>
<path d="M283.51 234.442L87.1802 127.546L241.06 105.897L437.39 212.792L283.51 234.442Z" stroke="#E7685D" stroke-width="3" stroke-miterlimit="10"/>
<path d="M437.39 212.792L437.27 279.192L240.94 172.296L241.06 105.897L437.39 212.792Z" stroke="#E7685D" stroke-width="3" stroke-miterlimit="10"/>
<path d="M437.39 212.792L437.27 279.192L240.94 172.296L241.06 105.897L437.39 212.792Z" stroke="#E7685D" stroke-width="3" stroke-miterlimit="10"/>
<path d="M437.27 279.192L283.38 300.841L87.0498 193.945L240.94 172.296L437.27 279.192Z" stroke="#E7685D" stroke-width="3" stroke-miterlimit="10"/>
<path d="M437.27 279.192L283.38 300.841L87.0498 193.945L240.94 172.296L437.27 279.192Z" stroke="#E7685D" stroke-width="3" stroke-miterlimit="10"/>
<path d="M283.38 300.841L283.27 361.826L86.9399 254.93L87.0499 193.945L283.38 300.841Z" stroke="#E7685D" stroke-width="3" stroke-miterlimit="10"/>
<path d="M283.38 300.841L283.27 361.826L86.9399 254.93L87.0499 193.945L283.38 300.841Z" stroke="#E7685D" stroke-width="3" stroke-miterlimit="10"/>
<path d="M283.27 361.825L201.33 373.356L5 266.45L86.94 254.93L283.27 361.825Z" stroke="#E7685D" stroke-width="3" stroke-miterlimit="10"/>
<path d="M283.27 361.825L201.33 373.356L5 266.45L86.94 254.93L283.27 361.825Z" stroke="#E7685D" stroke-width="3" stroke-miterlimit="10"/>
<path d="M201.33 373.356L5 266.45L5.42 39.3871L201.75 146.283L201.33 373.356Z" stroke="#E7685D" stroke-width="3" stroke-miterlimit="10"/>
<path d="M201.33 373.356L5 266.45L5.42 39.3871L201.75 146.283L201.33 373.356Z" stroke="#E7685D" stroke-width="3" stroke-miterlimit="10"/>
<path d="M201.75 146.283L5.41992 39.3871L261.74 3.33484L458.07 110.23L201.75 146.283Z" stroke="#E7685D" stroke-width="3" stroke-miterlimit="10"/>
<path d="M201.75 146.283L5.41992 39.3871L261.74 3.33484L458.07 110.23L201.75 146.283Z" stroke="#E7685D" stroke-width="3" stroke-miterlimit="10"/>
</svg>
